<svg id="visual" viewBox="0 0 960 540" width="960" height="540" xmlns="http://www.w3.org/2000/svg" xmlns:xlink="http://www.w3.org/1999/xlink" version="1.1"><rect x="0" y="0" width="960" height="540" fill="#001220"></rect><defs><linearGradient id="grad1_0" x1="43.8%" y1="100%" x2="100%" y2="0%"><stop offset="14.444444444444446%" stop-color="#001220" stop-opacity="1"></stop><stop offset="85.55555555555554%" stop-color="#001220" stop-opacity="1"></stop></linearGradient></defs><defs><linearGradient id="grad2_0" x1="0%" y1="100%" x2="56.3%" y2="0%"><stop offset="14.444444444444446%" stop-color="#001220" stop-opacity="1"></stop><stop offset="85.55555555555554%" stop-color="#001220" stop-opacity="1"></stop></linearGradient></defs><g transform="translate(960, 540)"><path d="M-297 0C-277.2 -27.5 -257.4 -55.1 -242.5 -78.8C-227.6 -102.5 -217.5 -122.5 -209.5 -152.2C-201.6 -182 -195.7 -221.4 -174.6 -240.3C-153.5 -259.1 -117.2 -257.4 -85.6 -263.4C-54 -269.5 -27 -283.2 0 -297L0 0Z" fill="#FBAE3C"></path></g><g transform="translate(0, 0)"><path d="M297 0C252.7 20.7 208.5 41.4 189.3 61.5C170.1 81.6 175.9 101.1 177.2 128.7C178.4 156.4 175 192.2 160.5 220.9C146 249.5 120.4 271 91.8 282.5C63.2 294 31.6 295.5 0 297L0 0Z" fill="#FBAE3C"></path></g></svg>